<?xml version="1.0" encoding="utf-8"?>
<!-- Generator: Adobe Illustrator 24.1.2, SVG Export Plug-In . SVG Version: 6.00 Build 0)  -->
<svg version="1.1" id="Calque_1" xmlns="http://www.w3.org/2000/svg" xmlns:xlink="http://www.w3.org/1999/xlink" x="0px" y="0px"
	 viewBox="0 0 512 512" style="enable-background:new 0 0 512 512;" xml:space="preserve">
<style type="text/css">
	.st0{fill:#FFFFFF;}
</style>
<path class="st0" d="M504,256C504,119,393,8,256,8S8,119,8,256s111,248,248,248S504,393,504,256z M56,256c0-110.5,89.5-200,200-200
	s200,89.5,200,200s-89.5,200-200,200S56,366.5,56,256z M163.5,247.5l122.8-122.8c4.7-4.7,12.3-4.7,17,0l22.6,22.6
	c4.7,4.7,4.7,12.3,0,17L234.2,256l91.7,91.7c4.7,4.7,4.7,12.3,0,17l-22.6,22.6c-4.7,4.7-12.3,4.7-17,0L163.5,264.5
	C158.8,259.8,158.8,252.2,163.5,247.5z"/>
</svg>
